<svg xmlns="http://www.w3.org/2000/svg" xmlns:xlink="http://www.w3.org/1999/xlink" fill="none" version="1.1" width="244.39999389648438" height="52" viewBox="0 0 244.39999389648438 52"><defs><clipPath id="master_svg0_1_0467"><rect x="0" y="0" width="244.39999389648438" height="52" rx="0"/></clipPath></defs><g clip-path="url(#master_svg0_1_0467)"><g><path d="M139.90600048828125,24.10197314453125L147.52400048828125,24.10197314453125L147.52400048828125,26.80597314453125L136.39600048828123,26.80597314453125L136.39600048828123,15.65197414453125L137.56600048828125,15.65197414453125C138.99600048828125,15.72997514453125,139.89300048828125,16.14597514453125,139.89300048828125,17.54997314453125L139.89300048828125,24.10197314453125L139.90600048828125,24.10197314453125ZM118.17000048828125,19.79897314453125L119.65200048828125,19.79897314453125C120.77000048828126,18.78497314453125,121.90100048828126,17.75797314453125,123.03200048828126,16.74397314453125C124.00700048828125,15.96397214453125,124.99500048828125,15.67797314453125,126.16500048828125,15.66497214453125L128.86900048828124,15.66497214453125L122.68100048828126,21.163973144531248L129.68800048828126,26.81897314453125L126.86700048828125,26.81897314453125C125.42400048828125,26.81897314453125,124.63100048828124,26.66297314453125,123.48700048828125,25.73997314453125L119.63900048828125,22.59397314453125L118.17000048828125,22.59397314453125L118.17000048828125,26.81897314453125L114.68600048828125,26.81897314453125L114.68600048828125,15.66497214453125L118.17000048828125,15.66497214453125L118.17000048828125,19.79897314453125ZM84.73400048828125,26.80597314453125L81.23700048828125,26.80597314453125L81.23700048828125,15.65197414453125L82.95300048828125,15.65197414453125C84.05800048828125,15.76897514453125,84.65600048828125,16.45797414453125,84.73400048828125,17.57597314453125L84.73400048828125,19.74697314453125L91.89700048828125,19.74697314453125L91.89700048828125,17.53697314453125C91.87100048828125,16.82197314453125,92.48200048828124,15.72997414453125,93.89900048828125,15.65197414453125L95.40700048828126,15.65197414453125L95.40700048828126,26.80597314453125L91.89700048828125,26.80597314453125L91.89700048828125,22.45097314453125L84.73400048828125,22.45097314453125L84.73400048828125,26.80597314453125ZM161.74600048828125,18.36897314453125L152.73700048828124,18.36897314453125L152.73700048828124,20.05897314453125L161.74600048828125,20.05897314453125L161.74600048828125,22.39897314453125L152.73700048828124,22.39897314453125L152.73700048828124,24.10197314453125L161.78500048828124,24.10197314453125L161.78500048828124,26.80597314453125L149.24000048828125,26.80597314453125L149.24000048828125,18.38197314453125C149.38300048828125,16.99097314453125,149.91600048828124,15.89897314453125,152.12600048828125,15.65197214453125L161.74600048828125,15.65197214453125L161.74600048828125,18.36897314453125ZM172.49700048828126,26.80597314453125L169.00000048828124,26.80597314453125L169.00000048828124,22.80197314453125L162.69500048828124,15.65197414453125L165.42500048828126,15.65197414453125C166.16600048828124,15.67797514453125,167.12800048828126,15.95097414453125,167.96000048828125,16.79597314453125L170.74200048828126,20.08497314453125C171.70400048828125,19.00597314453125,172.66600048828124,17.91397314453125,173.62800048828126,16.83497314453125C174.16100048828125,16.24997514453125,174.88900048828125,15.76897514453125,176.44900048828126,15.65197414453125L178.81500048828124,15.65197414453125L172.49700048828126,22.80197314453125L172.49700048828126,26.80597314453125ZM183.27400048828125,24.10197314453125L190.89200048828124,24.10197314453125L190.89200048828124,26.80597314453125L179.77700048828126,26.80597314453125L179.77700048828126,15.65197414453125L180.93400048828124,15.65197414453125C182.36400048828125,15.72997514453125,183.26100048828124,16.14597514453125,183.26100048828124,17.54997314453125L183.26100048828124,24.10197314453125L183.27400048828125,24.10197314453125ZM225.31600048828125,26.80597314453125L220.19400048828126,26.80597314453125L213.33000048828126,18.69397314453125L213.33000048828126,26.80597314453125L209.83300048828124,26.80597314453125L209.83300048828124,15.65197414453125L212.70600048828126,15.65197414453125C214.82500048828126,15.72997514453125,215.89100048828124,16.70497314453125,216.87900048828126,17.88797314453125L221.83200048828124,23.82897314453125L221.83200048828124,15.65197614453125L225.31600048828125,15.65197614453125L225.31600048828125,26.80597314453125ZM235.87200048828126,18.40797314453125L230.38600048828124,18.40797314453125L230.38600048828124,24.10197314453125L236.31400048828124,24.10197314453125C237.05500048828125,24.10197314453125,237.58800048828124,23.94597314453125,237.93900048828124,23.65997314453125C238.27700048828126,23.36097314453125,238.45900048828125,22.905973144531252,238.45900048828125,22.26897314453125L238.45900048828125,20.31897314453125C238.45900048828125,19.66897314453125,238.25100048828125,19.18797314453125,237.83500048828125,18.87597314453125C237.40600048828125,18.56397314453125,236.75600048828124,18.40797314453125,235.87200048828126,18.40797314453125ZM236.92500048828126,15.65197614453125C238.68000048828125,15.65197614453125,239.94100048828125,15.95097514453125,240.74700048828126,16.54897314453125C241.55300048828124,17.146973144531252,241.94300048828126,18.082973144531252,241.94300048828126,19.39597314453125L241.94300048828126,23.230973144531248C241.94300048828126,24.465973144531247,241.61800048828124,25.37597314453125,240.99400048828124,25.94797314453125C240.35700048828124,26.51997314453125,239.34300048828126,26.80597314453125,237.96500048828125,26.80597314453125L226.90200048828126,26.80597314453125L226.90200048828126,15.65197714453125L236.92500048828126,15.65197614453125ZM74.73700048828124,24.37497314453125C75.16600048828124,24.37497314453125,75.47800048828125,24.30997314453125,75.67300048828125,24.15397314453125C75.85500048828125,24.01097314453125,75.94600048828124,23.77697314453125,75.94600048828124,23.45197314453125C75.94600048828124,23.11397314453125,75.84200048828126,22.87997314453125,75.62100048828125,22.736973144531248C75.41300048828126,22.59397314453125,74.95800048828124,22.50297314453125,74.24300048828124,22.43797314453125L68.75700048828125,22.32097314453125C67.37900048828125,22.28197314453125,66.45600048828125,22.021973144531252,65.97500048828125,21.55397314453125C65.49400048828124,21.085973144531252,65.24700048828126,20.227973144531248,65.24700048828126,18.99297314453125C65.24700048828126,18.35597314453125,65.31200048828126,17.82297314453125,65.44200048828125,17.41997314453125C65.55900048828124,17.00397314453125,65.76700048828124,16.66597314453125,66.05300048828124,16.39297314453125C66.39100048828125,16.08097314453125,66.83300048828124,15.85997314453125,67.36600048828126,15.72997314453125C67.89900048828125,15.59997214453125,68.78300048828126,15.53497314453125,69.97900048828126,15.53497314453125L75.32200048828125,15.53497314453125C76.64800048828124,15.53497314453125,77.59700048828125,15.76897314453125,78.18200048828125,16.236973144531248C78.66300048828126,16.62697314453125,78.93600048828125,17.21197314453125,79.01400048828125,17.97897314453125L70.46000048828125,17.97897314453125C69.79700048828124,17.97897314453125,69.35500048828125,18.04397314453125,69.13400048828126,18.17397314453125C68.91300048828126,18.30397314453125,68.80900048828124,18.53797314453125,68.80900048828124,18.86297314453125C68.80900048828124,19.17497314453125,68.91300048828126,19.40897314453125,69.09500048828124,19.55197314453125C69.29000048828125,19.707973144531252,69.65400048828124,19.78597314453125,70.17400048828125,19.82497314453125L75.92000048828125,19.91597314453125C77.23300048828125,19.95497314453125,78.15600048828125,20.24097314453125,78.68900048828125,20.77397314453125C79.23500048828126,21.31997314453125,79.49500048828125,22.22997314453125,79.49500048828125,23.54297314453125C79.49500048828125,24.30997314453125,79.39100048828125,24.907973144531248,79.20900048828125,25.33697314453125C79.01400048828125,25.76597314453125,78.67600048828125,26.12997314453125,78.20800048828124,26.42897314453125C77.90900048828125,26.62397314453125,77.48000048828125,26.74097314453125,76.96000048828125,26.83197314453125C76.42700048828125,26.922973144531248,75.66000048828124,26.94897314453125,74.64600048828126,26.94897314453125L69.99200048828125,26.94897314453125C68.08100048828125,26.94897314453125,66.80700048828125,26.74097314453125,66.14400048828125,26.32497314453125C65.57200048828125,25.960973144531252,65.26000048828125,25.297973144531248,65.19500048828125,24.37497314453125L74.73700048828124,24.37497314453125ZM51.62300048828125,26.80597314453125L47.81400048828125,26.80597314453125L54.06700048828125,15.65197414453125L58.52600048828125,15.65197414453125L64.66200048828125,26.80597314453125L60.81400048828125,26.80597314453125L59.70900048828125,24.94697314453125L52.72800048828125,24.94697314453125L51.62300048828125,26.80597314453125ZM54.04100048828125,22.26897314453125L58.43500048828125,22.26897314453125L56.21200048828125,18.32997314453125L54.04100048828125,22.26897314453125ZM103.03800048828126,26.93597314453125C101.71200048828125,26.93597314453125,100.72400048828125,26.87097314453125,100.10000048828125,26.76697314453125C99.48900048828125,26.649973144531252,98.98200048828124,26.45497314453125,98.57900048828125,26.16897314453125C98.15000048828125,25.843973144531247,97.83800048828125,25.42797314453125,97.63000048828125,24.92097314453125C97.43500048828125,24.38797314453125,97.34400048828125,23.71197314453125,97.34400048828125,22.86697314453125L97.34400048828125,19.82497314453125C97.34400048828125,18.90197314453125,97.43500048828125,18.14797314453125,97.63000048828125,17.61497314453125C97.83800048828125,17.06897314453125,98.15000048828125,16.63997314453125,98.57900048828125,16.31497614453125C98.96900048828125,16.04197614453125,99.48900048828125,15.83397614453125,100.12600048828125,15.71697614453125C100.75000048828124,15.59997584453125,101.72500048828125,15.53497562408125,103.01200048828125,15.53497562408125L107.12000048828125,15.53497562408125C108.42000048828125,15.53497562408125,109.39500048828126,15.59997584453125,110.04500048828125,15.71697614453125C110.69500048828125,15.83397614453125,111.20200048828124,16.02897614453125,111.57900048828125,16.31497614453125C112.00800048828125,16.62697314453125,112.32000048828125,17.05597314453125,112.51500048828125,17.60197314453125C112.69700048828125,18.14797314453125,112.81400048828125,18.83697314453125,112.81400048828125,19.69497314453125L112.81400048828125,22.80197314453125C112.81400048828125,23.65997314453125,112.69700048828125,24.361973144531248,112.51500048828125,24.89497314453125C112.32000048828125,25.44097314453125,112.00800048828125,25.86997314453125,111.57900048828125,26.18197314453125C111.20200048828124,26.46797314453125,110.69500048828125,26.66297314453125,110.07100048828126,26.779973144531247C109.43400048828126,26.896973144531252,108.45900048828125,26.94897314453125,107.13300048828125,26.94897314453125L103.03800048828126,26.94897314453125L103.03800048828126,26.93597314453125ZM103.98700048828125,24.15397314453125L106.21000048828125,24.15397314453125C107.44500048828125,24.15397314453125,108.27700048828125,23.99797314453125,108.66700048828125,23.69897314453125C109.05700048828125,23.38697314453125,109.26500048828125,22.84097314453125,109.26500048828125,22.021973144531252L109.26500048828125,20.43597314453125C109.26500048828125,19.61697314453125,109.05700048828125,19.05797314453125,108.66700048828125,18.75897314453125C108.26400048828125,18.45997314453125,107.44500048828125,18.30397314453125,106.21000048828125,18.30397314453125L103.97400048828125,18.30397314453125C102.71300048828125,18.30397314453125,101.88100048828124,18.45997314453125,101.50400048828125,18.75897314453125C101.11400048828125,19.05797314453125,100.90600048828125,19.64297314453125,100.90600048828125,20.48797314453125L100.90600048828125,22.03497314453125C100.90600048828125,22.84097314453125,101.11400048828125,23.38697314453125,101.53000048828125,23.68597314453125C101.93300048828125,23.99797314453125,102.75200048828125,24.15397314453125,103.98700048828125,24.15397314453125ZM195.62400048828124,26.80597314453125L191.81500048828124,26.80597314453125L198.08100048828126,15.65197414453125L202.52700048828126,15.65197414453125L208.67600048828126,26.80597314453125L204.84100048828125,26.80597314453125L203.73600048828126,24.94697314453125L196.75500048828124,24.94697314453125L195.62400048828124,26.80597314453125ZM198.06800048828126,22.26897314453125L202.46200048828126,22.26897314453125L200.23900048828125,18.32997314453125L198.06800048828126,22.26897314453125ZM24.99900048828125,16.96497314453125C25.194000488281247,16.53597314453125,25.37600048828125,16.09397314453125,25.389000488281248,15.63897414453125L19.37000048828125,15.63897414453125L19.24000048828125,15.72997414453125L19.05800048828125,16.30197314453125C18.91500048828125,16.73097314453125,19.24000048828125,16.65297314453125,19.39600048828125,16.73097314453125C19.87700048828125,16.93897314453125,20.02000048828125,17.28997314453125,19.92900048828125,17.70597314453125L18.03100048828125,23.60797314453125C17.78400048828125,24.24497314453125,17.30300048828125,24.335973144531252,16.56199948828125,24.42697314453125C16.43199948828125,24.81697314453125,16.39299948828125,24.95997314453125,16.26300048828125,25.297973144531248L16.39300148828125,25.414973144531253L27.17000048828125,25.414973144531253L28.48300048828125,21.17697314453125C28.197000488281247,21.085973144531252,27.83300048828125,21.07297314453125,27.43000048828125,21.163973144531248C27.15700048828125,21.59297314453125,27.10500048828125,22.24297314453125,26.78000048828125,22.82797314453125C26.572000488281247,23.19197314453125,26.24700048828125,23.54297314453125,25.72700048828125,23.81597314453125C24.68700048828125,24.24497314453125,23.97200048828125,24.06297314453125,22.41200048828125,24.07597314453125C22.29500048828125,24.07597314453125,22.15200048828125,24.06297314453125,22.03500048828125,24.04997314453125C21.80100048828125,24.02397314453125,21.80100048828125,23.94597314453125,21.840000488281248,23.789973144531253L23.76400048828125,17.61497314453125C23.959000488281248,17.10797314453125,24.47900048828125,17.01697314453125,24.99900048828125,16.96497314453125Z" fill="#0089CF" fill-opacity="1" style="mix-blend-mode:passthrough"/></g><g><path d="M21.865985961914063,2.24896240234375C32.538985961914065,2.24896240234375,41.261985961914064,10.84196240234375,41.261985961914064,21.38496240234375C41.261985961914064,31.92796240234375,32.538985961914065,40.52096240234375,21.865985961914063,40.52096240234375C11.180005961914063,40.52096240234375,2.4700005293140626,31.92796240234375,2.4700005293140626,21.38496240234375C2.4570005619140627,10.85496240234375,11.166995961914063,2.24896240234375,21.865985961914063,2.24896240234375ZM21.865985961914063,13.15596240234375C26.454985961914062,13.15596240234375,30.19898596191406,16.860962402343752,30.19898596191406,21.38496240234375C30.19898596191406,25.90896240234375,26.454985961914062,29.61396240234375,21.865985961914063,29.61396240234375C17.263985961914063,29.61396240234375,13.519985961914063,25.92196240234375,13.519985961914063,21.38496240234375C13.519985961914063,16.860962402343752,17.263985961914063,13.15596240234375,21.865985961914063,13.15596240234375ZM22.34698596191406,4.99196240234375C20.019985961914063,6.14896240234375,12.337005961914063,11.41396240234375,11.673995961914063,20.94296240234375C10.582005961914062,19.72096240234375,8.723005961914062,15.84696240234375,8.762005961914063,11.64796240234375L8.840005961914063,11.30996240234375C9.854005961914062,9.151962402343749,15.976985961914062,4.419962402343749,22.34698596191406,4.99196240234375ZM5.472995961914062,20.78696240234375C6.617005961914063,23.11396240234375,11.894995961914063,30.79696240234375,21.41098596191406,31.45996240234375C20.188985961914064,32.56496240234375,16.327985961914063,34.41096240234375,12.129005961914062,34.38496240234375L11.765005961914062,34.30696240234375C9.620005961914062,33.27996240234375,4.888005961914063,27.15696240234375,5.472995961914062,20.78696240234375ZM21.371985961914064,37.77796240234375C23.69898596191406,36.60796240234375,31.38198596191406,31.34296240234375,32.05798596191406,21.82696240234375C33.136985961914064,23.06196240234375,34.995985961914066,26.92296240234375,34.96998596191406,31.12196240234375L34.89198596191406,31.47296240234375C33.86498596191406,33.61796240234375,27.74198596191406,38.34996240234375,21.371985961914064,37.77796240234375ZM38.245985961914066,21.98296240234375C37.08898596191406,19.66896240234375,31.82398596191406,11.97296240234375,22.294985961914062,11.30996240234375C23.516985961914063,10.217962402343751,27.377985961914064,8.371962402343751,31.589985961914063,8.397962402343751L31.940985961914063,8.48896240234375C34.08598596191406,9.48996240234375,38.81798596191406,15.61296240234375,38.245985961914066,21.98296240234375Z" fill-rule="evenodd" fill="#0089CF" fill-opacity="1" style="mix-blend-mode:passthrough"/></g><g><path d="M67.75600219726563,45.239964609375L67.00200219726563,45.239964609375L66.35200219726562,49.594974609375L64.24600219726562,49.594974609375L65.81900219726562,39.090967609375L67.92500219726563,39.090967609375L67.28800219726563,43.380964609375L68.01600219726562,43.380964609375L70.99300219726562,39.090969609375L73.73600219726562,39.090969609375L69.62800219726563,44.342974609375L72.30600219726563,49.594974609375L69.88800219726562,49.594974609375L67.75600219726563,45.239964609375ZM73.99600219726562,45.616974609375C74.17800219726563,44.407974609375,74.64600219726563,43.445974609375,75.38700219726563,42.717974609375C76.14100219726562,42.002974609375,77.09000219726562,41.638964609375,78.26000219726562,41.638964609375C79.36500219726562,41.638964609375,80.21000219726562,42.015974609375,80.76900219726562,42.769964609375C81.32800219726562,43.523974609375,81.52300219726563,44.472964609375,81.36700219726562,45.616964609375L81.34100219726562,45.772964609375C81.15900219726562,46.994964609375,80.69100219726562,47.956964609375,79.93700219726563,48.671974609375C79.18300219726562,49.386974609375,78.23400219726562,49.750974609375,77.06400219726562,49.750974609375C75.95900219726562,49.750974609375,75.11400219726562,49.373974609375,74.55500219726562,48.632974609375C73.99599219726562,47.878964609375004,73.80099219726563,46.929964609375,73.98300219726562,45.785964609375L73.99600219726562,45.616974609375ZM76.06300219726563,45.772964609375C75.94600219726563,46.513964609375,75.98500219726563,47.085964609375,76.16700219726562,47.501974609375C76.34900219726562,47.917974609375,76.72600219726563,48.125974609375,77.28500219726563,48.125974609375C77.80500219726562,48.125974609375,78.23400219726562,47.904974609375,78.55900219726563,47.475974609375C78.89700219726562,47.033974609375,79.10500219726562,46.474974609374996,79.20900219726562,45.772964609375L79.23500219726563,45.616974609375C79.33900219726563,44.901974609375,79.30000219726563,44.329964609375,79.10500219726562,43.900974609375C78.92300219726562,43.471964609375,78.54600219726562,43.263964609375,78.00000219726563,43.263964609375C77.48000219726562,43.263964609375,77.05100219726563,43.484964609375,76.71300219726562,43.926964609375C76.37500219726563,44.368964609375,76.16700219726562,44.927964609374996,76.07600219726562,45.616964609375L76.06300219726563,45.772964609375ZM85.00700219726562,49.594974609375L82.90100219726563,49.594974609375L84.07100219726563,41.794974609375004L86.17700219726562,41.794974609375004L85.00700219726562,49.594974609375ZM86.46300219726562,39.922974609375L84.35700219726563,39.922974609375L84.59100219726562,38.336972409375L86.69700219726562,38.336972409375L86.46300219726562,39.922974609375ZM97.90300219726562,46.838964609375L97.94200219726562,46.838964609375L101.80300219726563,39.090969609375L104.55900219726563,39.090969609375L102.98600219726563,49.594974609375L100.88000219726563,49.594974609375L101.94600219726563,42.431974609375L101.90700219726563,42.431974609375L98.22800219726562,49.594974609375L96.81100219726562,49.594974609375L95.27700219726563,42.405974609375L95.23800219726563,42.405974609375L94.15900219726562,49.594974609375L92.05300219726563,49.594974609375L93.62600219726562,39.090972609375L96.39500219726563,39.090972609375L97.90300219726562,46.838964609375ZM110.09700219726562,49.594974609375C110.04500219726563,49.412974609375,110.00600219726562,49.230974609375,109.98000219726563,49.022974609375C109.95400219726562,48.827974609375,109.94100219726562,48.619974609375,109.95400219726562,48.411974609375C109.68100219726563,48.801974609375,109.34300219726563,49.113974609375,108.95300219726562,49.360974609375C108.56300219726563,49.607974609375,108.12100219726562,49.737974609375,107.62700219726563,49.737974609375C106.83400219726562,49.737974609375,106.24900219726563,49.529974609375,105.84600219726562,49.100974609375C105.45600219726563,48.671974609375,105.31300219726563,48.099974609374996,105.41700219726562,47.384974609375C105.53400219726562,46.591974609375,105.91100219726562,45.993974609375,106.56100219726562,45.590964609375C107.21100219726563,45.187964609375,108.09500219726561,44.979964609375,109.23900219726562,44.979964609375L110.42200219726563,44.979964609375L110.51300219726562,44.355964609375C110.56500219726563,43.965974609375,110.51300219726562,43.666974609375,110.34400219726562,43.471964609375C110.17500219726563,43.276964609375,109.90200219726563,43.172964609375,109.49900219726563,43.172964609375C109.17400219726562,43.172964609375,108.90100219726563,43.250974609375,108.68000219726562,43.419964609375C108.45900219726562,43.588964609375,108.32900219726562,43.809964609375,108.29000219726562,44.095964609375L106.26200219726562,44.095964609375L106.24900219726563,44.056964609375C106.32700219726563,43.367974609375,106.69100219726562,42.795964609375,107.36700219726563,42.327964609375C108.04300219726562,41.859964609375,108.87500219726562,41.625964609375,109.86300219726562,41.625964609375C110.77300219726563,41.625964609375,111.48800219726562,41.859964609375,112.00800219726563,42.340964609375C112.52800219726562,42.821964609375,112.72300219726563,43.484964609375,112.59300219726563,44.355964609375L112.11200219726562,47.579964609375C112.06000219726562,47.956964609375,112.03400219726562,48.307964609375,112.03400219726562,48.619974609375C112.04700219726563,48.931974609375004,112.08600219726563,49.243974609375,112.15100219726563,49.568974609375L110.09700219726562,49.568974609375L110.09700219726562,49.594974609375ZM108.38100219726562,48.190974609375004C108.73200219726561,48.190974609375004,109.07000219726562,48.099974609374996,109.39500219726563,47.917974609375C109.72000219726561,47.735974609375,109.95400219726562,47.514964609375,110.09700219726562,47.280974609375L110.26600219726564,46.188964609375L109.07000219726562,46.188964609375C108.64100219726564,46.188964609375,108.29000219726562,46.305964609374996,108.01700219726563,46.526964609375C107.74400219726562,46.747964609375,107.58800219726562,47.020964609375,107.53600219726562,47.332964609375C107.49700219726563,47.605964609375,107.54900219726562,47.813964609375,107.69200219726562,47.969964609375C107.84800219726563,48.112964609375,108.08200219726562,48.190964609375,108.38100219726562,48.190974609375004ZM117.19500219726562,42.860974609375C117.50700219726562,42.470974609375,117.87100219726562,42.171974609375,118.28700219726562,41.963974609375C118.70300219726562,41.755974609375,119.14500219726563,41.651974609375,119.61300219726562,41.651974609375C120.36700219726563,41.651974609375,120.93900219726562,41.911974609375,121.31600219726562,42.418974609375C121.69300219726563,42.938974609375,121.81000219726562,43.731974609375,121.64100219726564,44.810974609375L120.92600219726563,49.594974609375L118.82000219726562,49.594974609375L119.53500219726563,44.823974609375C119.62600219726562,44.251974609375,119.58700219726563,43.848974609375,119.43100219726563,43.627974609375C119.27500219726562,43.406974609375,119.00200219726563,43.289974609375,118.59900219726563,43.289974609375C118.28700219726562,43.289974609375,118.01400219726563,43.354974609375,117.75400219726563,43.471974609374996C117.49400219726562,43.588974609375,117.27300219726563,43.757984609375,117.09100219726562,43.978974609375L116.24600219726562,49.594974609375L114.14000219726563,49.594974609375L115.31000219726562,41.794974609375004L117.27300219726563,41.794974609375004L117.19500219726562,42.860974609375ZM125.87900219726563,47.943974609375L125.89200219726563,47.982974609375L129.71400219726564,47.982974609375L129.46700219726563,49.594974609375L122.98000219726563,49.594974609375L123.16200219726562,48.359974609375L127.58200219726562,43.458974609375L127.56900219726563,43.419974609375004L124.02000219726563,43.419974609375004L124.26700219726563,41.794974609375004L130.50700219726562,41.794974609375004L130.3380021972656,42.990974609375L125.87900219726563,47.943974609375ZM133.74400219726562,49.594974609375L131.63800219726562,49.594974609375L132.80800219726564,41.794974609375004L134.91400219726563,41.794974609375004L133.74400219726562,49.594974609375ZM135.20000219726563,39.922974609375L133.09400219726564,39.922974609375L133.32800219726562,38.336972409375L135.4340021972656,38.336972409375L135.20000219726563,39.922974609375ZM138.43700219726563,49.594974609375L136.3310021972656,49.594974609375L138.00800219726563,38.336972409375L140.12700219726563,38.336972409375L138.43700219726563,49.594974609375ZM145.48300219726562,49.594974609375L147.05600219726563,39.090972609375L150.72200219726562,39.090972609375C151.95700219726564,39.090972609375,152.94500219726564,39.506974609375,153.67300219726565,40.325974609375C154.40100219726563,41.157974609375,154.67400219726562,42.197974609375,154.4920021972656,43.471974609374996L154.23200219726561,45.213974609375C154.03700219726562,46.552974609375,153.45200219726564,47.618974609375,152.5160021972656,48.411974609375C151.56700219726562,49.204974609375,150.44900219726563,49.594974609375,149.14900219726565,49.594974609375L145.48300219726562,49.594974609375ZM148.9150021972656,40.715974609375L147.82300219726562,47.982974609375L149.38300219726563,47.982974609375C150.04600219726564,47.982974609375,150.63100219726562,47.722974609375,151.15100219726563,47.202974609375C151.67100219726564,46.682974609375,151.98300219726562,46.019974609375,152.1000021972656,45.226974609375L152.36000219726563,43.471974609374996C152.47700219726562,42.639974609375,152.37300219726563,41.976974609375,152.02200219726564,41.469974609375C151.6840021972656,40.962974609375,151.16400219726563,40.715974609375,150.46200219726563,40.715974609375L148.9150021972656,40.715974609375ZM156.10400219726563,45.616974609375C156.28600219726565,44.407974609375,156.7540021972656,43.445974609375,157.49500219726562,42.717974609375C158.2490021972656,42.002974609375,159.19800219726562,41.638964609375,160.36800219726564,41.638964609375C161.47300219726563,41.638964609375,162.31800219726563,42.015974609375,162.87700219726563,42.769964609375C163.43600219726562,43.523974609375,163.63100219726562,44.472964609375,163.4750021972656,45.616964609375L163.44900219726563,45.772964609375C163.26700219726564,46.994964609375,162.79900219726562,47.956964609375,162.04500219726563,48.671974609375C161.29100219726564,49.386974609375,160.34200219726563,49.750974609375,159.1720021972656,49.750974609375C158.06700219726562,49.750974609375,157.22200219726562,49.373974609375,156.66300219726563,48.632974609375C156.10400219726563,47.878964609375004,155.90900219726564,46.929964609375,156.09100219726562,45.785964609375L156.10400219726563,45.616974609375ZM158.1840021972656,45.772964609375C158.06700219726562,46.513964609375,158.10600219726564,47.085964609375,158.28800219726563,47.501974609375C158.47000219726561,47.917974609375,158.84700219726562,48.125974609375,159.40600219726562,48.125974609375C159.92600219726563,48.125974609375,160.3550021972656,47.904974609375,160.68000219726562,47.475974609375C161.01800219726562,47.033974609375,161.22600219726564,46.474974609374996,161.33000219726563,45.772964609375L161.35600219726564,45.616974609375C161.46000219726562,44.901974609375,161.42100219726564,44.329964609375,161.22600219726564,43.900974609375C161.04400219726563,43.471964609375,160.66700219726562,43.263964609375,160.12100219726562,43.263964609375C159.60100219726564,43.263964609375,159.1720021972656,43.484964609375,158.83400219726562,43.926964609375C158.49600219726562,44.368964609375,158.28800219726563,44.927964609374996,158.19700219726562,45.616964609375L158.1840021972656,45.772964609375ZM165.19100219726562,45.616974609375C165.37300219726563,44.407974609375,165.84100219726562,43.445974609375,166.58200219726564,42.717974609375C167.33600219726563,42.002974609375,168.2850021972656,41.638964609375,169.45500219726563,41.638964609375C170.56000219726562,41.638964609375,171.40500219726562,42.015974609375,171.96400219726564,42.769964609375C172.5230021972656,43.523974609375,172.7180021972656,44.472964609375,172.56200219726563,45.616964609375L172.53600219726565,45.772964609375C172.35400219726563,46.994964609375,171.8860021972656,47.956964609375,171.13200219726562,48.671974609375C170.37800219726563,49.386974609375,169.42900219726562,49.750974609375,168.25900219726563,49.750974609375C167.15400219726564,49.750974609375,166.3090021972656,49.373974609375,165.75000219726564,48.632974609375C165.19100219726562,47.878964609375004,164.99600219726562,46.929964609375,165.17800219726564,45.785964609375L165.19100219726562,45.616974609375ZM167.27100219726563,45.772964609375C167.15400219726564,46.513964609375,167.19300219726563,47.085964609375,167.37500219726564,47.501974609375C167.55700219726563,47.917974609375,167.9340021972656,48.125974609375,168.49300219726564,48.125974609375C169.01300219726562,48.125974609375,169.44200219726562,47.904974609375,169.76700219726564,47.475974609375C170.1050021972656,47.033974609375,170.31300219726563,46.474974609374996,170.41700219726562,45.772964609375L170.44300219726563,45.616974609375C170.5470021972656,44.901974609375,170.49500219726562,44.329964609375,170.31300219726563,43.900974609375C170.13100219726562,43.471964609375,169.7540021972656,43.263964609375,169.2080021972656,43.263964609375C168.68800219726563,43.263964609375,168.25900219726563,43.484964609375,167.92100219726564,43.926964609375C167.5830021972656,44.368964609375,167.37500219726564,44.927964609374996,167.28400219726564,45.616964609375L167.27100219726563,45.772964609375ZM178.99700219726563,43.601974609375L178.2300021972656,43.575974609375C177.93100219726563,43.575974609375,177.65800219726563,43.640974609375,177.43700219726563,43.783974609375C177.21600219726562,43.926974609375,177.02100219726563,44.108974609375,176.87800219726563,44.368974609375L176.09800219726563,49.594974609375L173.9920021972656,49.594974609375L175.16200219726562,41.794974609375004L177.1120021972656,41.794974609375004L177.03400219726564,42.912974609375C177.26800219726562,42.509974609375,177.55400219726562,42.197974609375,177.8790021972656,41.976974609375C178.20400219726562,41.755974609375,178.55500219726562,41.651974609375,178.94500219726564,41.651974609375C179.04900219726562,41.651974609375,179.14000219726563,41.664964609375,179.23100219726564,41.677974609375C179.32200219726562,41.690974609375,179.41300219726563,41.716974609375,179.49100219726563,41.742974609375L178.99700219726563,43.601974609375ZM192.99800219726563,49.594974609375L190.89200219726564,49.594974609375L187.72000219726561,42.509974609375L187.66800219726562,42.522964609375L186.61500219726562,49.594974609375L184.50900219726563,49.594974609375L186.08200219726564,39.090967609375L188.18800219726563,39.090967609375L191.36000219726563,46.175964609375L191.41200219726562,46.162964609375L192.46500219726562,39.090967609375L194.5710021972656,39.090967609375L192.99800219726563,49.594974609375ZM200.12200219726563,49.594974609375C200.07000219726564,49.412974609375,200.03100219726562,49.230974609375,200.0050021972656,49.022974609375C199.97900219726563,48.827974609375,199.96600219726562,48.619974609375,199.97900219726563,48.411974609375C199.70600219726563,48.801974609375,199.36800219726564,49.113974609375,198.97800219726562,49.360974609375C198.58800219726564,49.607974609375,198.14600219726563,49.737974609375,197.65200219726563,49.737974609375C196.85900219726562,49.737974609375,196.27400219726562,49.529974609375,195.87100219726562,49.100974609375C195.48100219726564,48.671974609375,195.33800219726564,48.099974609374996,195.44200219726562,47.384974609375C195.5590021972656,46.591974609375,195.93600219726562,45.993974609375,196.58600219726563,45.590964609375C197.23600219726563,45.187964609375,198.12000219726562,44.979964609375,199.26400219726563,44.979964609375L200.44700219726562,44.979964609375L200.53800219726563,44.355964609375C200.59000219726562,43.965974609375,200.53800219726563,43.666974609375,200.36900219726562,43.471964609375C200.20000219726563,43.276964609375,199.92700219726564,43.172964609375,199.52400219726562,43.172964609375C199.19900219726563,43.172964609375,198.92600219726563,43.250974609375,198.70500219726563,43.419964609375C198.48400219726562,43.588964609375,198.35400219726563,43.809964609375,198.3150021972656,44.095964609375L196.28700219726562,44.095964609375L196.27400219726562,44.056964609375C196.35200219726562,43.367974609375,196.71600219726562,42.795964609375,197.3920021972656,42.327964609375C198.06800219726563,41.859964609375,198.90000219726562,41.625964609375,199.88800219726562,41.625964609375C200.79800219726562,41.625964609375,201.51300219726562,41.859964609375,202.03300219726563,42.340964609375C202.5530021972656,42.821964609375,202.74800219726563,43.484964609375,202.61800219726564,44.355964609375L202.13700219726562,47.579964609375C202.08500219726562,47.956964609375,202.0590021972656,48.307964609375,202.0590021972656,48.619974609375C202.07200219726562,48.931974609375004,202.11100219726563,49.243974609375,202.17600219726563,49.568974609375L200.12200219726563,49.568974609375L200.12200219726563,49.594974609375ZM198.40600219726562,48.190974609375004C198.75700219726562,48.190974609375004,199.09500219726561,48.099974609374996,199.42000219726563,47.917974609375C199.74500219726562,47.735974609375,199.97900219726563,47.514964609375,200.12200219726563,47.280974609375L200.2910021972656,46.188964609375L199.10800219726562,46.188964609375C198.67900219726562,46.188964609375,198.32800219726562,46.305964609374996,198.05500219726562,46.526964609375C197.78200219726563,46.747964609375,197.62600219726562,47.020964609375,197.57400219726563,47.332964609375C197.5350021972656,47.605964609375,197.58700219726563,47.813964609375,197.73000219726563,47.969964609375C197.87300219726563,48.112964609375,198.09400219726564,48.190964609375,198.40600219726562,48.190974609375004ZM207.27200219726564,42.730964609375C207.5710021972656,42.379964609375,207.9220021972656,42.119964609375,208.29900219726562,41.924974609375C208.67600219726563,41.729964609375,209.09200219726563,41.638964609375,209.52100219726563,41.638964609375C210.30100219726563,41.638964609375,210.89900219726562,41.911964609375,211.28900219726563,42.457974609375C211.69200219726562,43.003964609375004,211.79600219726564,43.835974609375,211.62700219726563,44.953964609375L210.93800219726563,49.581974609374996L208.83200219726564,49.581974609374996L209.53400219726564,44.940974609375C209.62500219726562,44.316974609375,209.58600219726563,43.874974609375,209.44300219726563,43.627974609375C209.28700219726562,43.393974609375,209.01400219726563,43.263974609375,208.61100219726563,43.263974609375C208.29900219726562,43.263974609375,208.01300219726562,43.315974609375,207.75300219726563,43.432974609375C207.50600219726562,43.549974609375,207.2850021972656,43.692974609375,207.09000219726562,43.900974609375L206.24500219726562,49.581974609374996L204.13900219726563,49.581974609374996L205.82900219726562,38.323974609375L207.93500219726562,38.323974609375L207.27200219726564,42.730964609375ZM215.48800219726562,49.594974609375L213.38200219726562,49.594974609375L214.55200219726564,41.794974609375004L216.65800219726563,41.794974609375004L215.48800219726562,49.594974609375ZM216.93100219726563,39.922974609375L214.82500219726563,39.922974609375L215.0590021972656,38.336972409375L217.16500219726564,38.336972409375L216.93100219726563,39.922974609375ZM220.98700219726564,42.860974609375C221.29900219726562,42.470974609375,221.66300219726563,42.171974609375,222.07900219726562,41.963974609375C222.49500219726562,41.755974609375,222.93700219726563,41.651974609375,223.40500219726562,41.651974609375C224.15900219726564,41.651974609375,224.73100219726564,41.911974609375,225.10800219726562,42.418974609375C225.48500219726563,42.938974609375,225.60200219726562,43.731974609375,225.43300219726564,44.810974609375L224.71800219726563,49.594974609375L222.59900219726563,49.594974609375L223.31400219726564,44.823974609375C223.40500219726562,44.251974609375,223.36600219726563,43.848974609375,223.21000219726562,43.627974609375C223.05400219726562,43.406974609375,222.78100219726562,43.289974609375,222.37800219726563,43.289974609375C222.06600219726562,43.289974609375,221.79300219726562,43.354974609375,221.53300219726563,43.471974609374996C221.2730021972656,43.588974609375,221.05200219726564,43.757984609375,220.87000219726562,43.978974609375L220.02500219726562,49.594974609375L217.91900219726563,49.594974609375L219.08900219726561,41.794974609375004L221.05200219726564,41.794974609375004L220.98700219726564,42.860974609375Z" fill="#0089CF" fill-opacity="1" style="mix-blend-mode:passthrough"/></g></g></svg>