<svg xmlns="http://www.w3.org/2000/svg" xmlns:xlink="http://www.w3.org/1999/xlink" fill="none" version="1.1" width="249.36361694335938" height="52" viewBox="0 0 249.36361694335938 52"><defs><clipPath id="master_svg0_1_0473"><rect x="0" y="0" width="249.36361694335938" height="52" rx="0"/></clipPath></defs><g clip-path="url(#master_svg0_1_0473)"><g><path d="M7.00038,17.541421484375L19.5528,17.541421484375C21.0816,17.541421484375,22.0472,17.219421484375,22.0472,15.932121484375C22.0472,14.403321484375,21.0816,14.000921484375,19.5528,14.000921484375L7.00038,14.000921484375L7.00038,17.541421484375ZM7.00038,9.253551484375L19.4723,9.253551484375C20.7598,9.253551484375,21.4839,8.851221484375,21.4839,7.563801484375C21.4839,6.276371484375,20.7598,5.713121484375,19.4723,5.713121484375L7.00038,5.713121484375L7.00038,9.253551484375ZM0,0.322021484375L20.1966,0.322021484375C25.829,0.322021484375,28.5648,1.850841484375,28.5648,6.276371484375C28.5648,10.138651484375,27.1165,10.862821484375,25.1853,11.426121484375L25.1853,11.506521484375C28.243,11.908821484375,29.3695,13.518121484375,29.3695,16.978121484375C29.3695,21.966921484375,26.3922,22.932521484375,22.4496,22.932521484375L0.0804692,22.932521484375L0.0804692,0.322021484375L0,0.322021484375Z" fill="#FFFFFF" fill-opacity="1" style="mix-blend-mode:passthrough"/></g><g><path d="M42.08300119628906,11.506521484375L54.47450119628906,11.506521484375C56.32520119628906,11.506521484375,57.04940119628906,10.782321484375,57.04940119628906,9.092621484375L57.04940119628906,8.368441484375C57.04940119628906,6.437301484375,56.00340119628906,6.034971484375,53.83090119628906,6.034971484375L42.08300119628906,6.034971484375L42.08300119628906,11.506521484375ZM35.16310119628906,0.322021484375L56.96890119628907,0.322021484375C62.44050119628906,0.322021484375,63.80840119628906,2.977341484375,63.80840119628906,7.000561484375L63.80840119628906,8.448911484375C63.80840119628906,11.506521484375,63.16460119628906,13.276821484375,59.865701196289066,14.000921484375L59.865701196289066,14.081421484375C62.03810119628906,14.483721484375,63.72790119628907,15.368821484375,63.72790119628907,19.150721484375L63.72790119628907,22.932521484375L56.72750119628906,22.932521484375L56.72750119628906,20.277221484375C56.72750119628906,17.863221484375,56.00340119628906,17.058621484375,53.83090119628906,17.058621484375L42.08300119628906,17.058621484375L42.08300119628906,22.932521484375L35.16310119628906,22.932521484375L35.16310119628906,0.322021484375Z" fill="#FFFFFF" fill-opacity="1" style="mix-blend-mode:passthrough"/></g><g><path d="M69.76249694824219,0.322021484375L76.7628769482422,0.322021484375L76.7628769482422,22.932521484375L69.76249694824219,22.932521484375L69.76249694824219,0.322021484375Z" fill="#FFFFFF" fill-opacity="1" style="mix-blend-mode:passthrough"/></g><g><path d="M81.34901880859375,0.322021484375L109.18962880859375,0.322021484375L108.06302880859374,5.954521484375L98.16602880859375,5.954521484375L98.16602880859375,22.932521484375L91.16562880859375,22.932521484375L91.16562880859375,5.954521484375L80.14202880859375,5.954521484375L81.34901880859375,0.322021484375Z" fill="#FFFFFF" fill-opacity="1" style="mix-blend-mode:passthrough"/></g><g><path d="M112.247314453125,0.322021484375L119.247814453125,0.322021484375L119.247814453125,22.932521484375L112.247314453125,22.932521484375L112.247314453125,0.322021484375Z" fill="#FFFFFF" fill-opacity="1" style="mix-blend-mode:passthrough"/></g><g><path d="M131.88025057617187,15.5296C131.9606105761719,17.9435,132.92616057617187,18.1849,134.85843057617188,18.1849L143.46794057617188,18.1849C144.99604057617188,18.1849,146.52534057617189,17.9435,146.52534057617189,16.2538C146.52534057617189,14.2422,145.72054057617189,14.1617,136.62764057617187,14.1617C126.08698057617187,14.1617,124.88034057617188,12.8743,124.88034057617188,7.32224C124.88034057617188,3.21856,125.28216357617187,0,134.13398057617187,0L143.95014057617186,0C151.75494057617186,0,152.72044057617188,2.57485,152.80084057617188,6.27621Q148.45644057617187,7.00038,145.80084057617188,7.40271C145.80084057617188,5.79343,145.64014057617186,5.06924,142.34054057617186,5.06924L134.61616057617186,5.06924C133.00770057617189,5.06924,131.9606105761719,5.55203,131.9606105761719,6.83945C131.9606105761719,8.7706,132.76543057617187,8.85106,140.32904057617188,8.7706C151.1923405761719,8.69013,153.68594057617187,9.41432,153.68594057617187,16.0123C153.68594057617187,22.1277,151.59414057617187,23.0932,142.34054057617186,23.0932L133.8113405761719,23.0932C127.45552057617188,23.0932,124.88034057617188,21.9667,124.88034057617188,17.0584Q124.88034057617188,16.978,124.88034057617188,16.5756Q128.50143057617188,16.0928,131.88025057617187,15.5296Z" fill="#FFFFFF" fill-opacity="1" style="mix-blend-mode:passthrough"/></g><g><path d="M169.37700014648436,42.9678205078125C169.37700014648436,45.220820507812505,170.34255014648437,45.4621205078125,172.19327014648437,45.4621205078125L180.32060014648437,45.4621205078125C181.68800014648437,45.4621205078125,183.05650014648438,45.3013205078125,183.05650014648438,43.6115205078125C183.05650014648438,41.680320507812496,182.25170014648438,41.6000205078125,173.88330014648437,41.6000205078125C163.90637014648436,41.6000205078125,162.77890014648438,40.3125205078125,162.77890014648438,35.0018805078125C162.77890014648438,31.0591005078125,163.10154814648436,27.9210205078125,171.47000014648438,27.9210205078125L180.64210014648438,27.9210205078125C187.96460014648437,27.9210205078125,188.93020014648437,30.4153605078125,188.93020014648437,34.0363405078125Q184.82690014648438,34.6799605078125,182.41250014648438,35.0823705078125C182.41250014648438,33.4730805078125,182.25170014648438,32.8293505078125,179.19440014648438,32.8293505078125L171.87181014648436,32.8293505078125C170.42290014648438,32.8293505078125,169.37700014648436,33.3121205078125,169.37700014648436,34.5191105078125C169.37700014648436,36.4502005078125,170.18182014648437,36.5306805078125,177.26330014648437,36.4502005078125C187.4813001464844,36.3697205078125,189.8957001464844,37.0939405078125,189.8957001464844,43.4506205078125C189.8957001464844,49.4049205078125,187.96460014648437,50.2901205078125,179.1140001464844,50.2901205078125L171.14737014648438,50.2901205078125C165.19337014648437,50.2901205078125,162.77890014648438,49.163620507812496,162.77890014648438,44.4161205078125Q162.77890014648438,44.335720507812496,162.77890014648438,44.0138205078125Q166.2392701464844,43.4506205078125,169.37700014648436,42.9678205078125Z" fill="#FFFFFF" fill-opacity="1" style="mix-blend-mode:passthrough"/></g><g><path d="M159.15780639648438,0.322021484375L166.15889639648438,0.322021484375L166.15889639648438,8.368441484375L181.92910639648437,8.368441484375L181.92910639648437,0.322021484375L188.93020639648438,0.322021484375L188.93020639648438,22.932521484375L181.92910639648437,22.932521484375L181.92910639648437,14.403321484375L166.15889639648438,14.403321484375L166.15889639648438,22.932521484375L159.15780639648438,22.932521484375L159.15780639648438,0.322021484375Z" fill="#FFFFFF" fill-opacity="1" style="mix-blend-mode:passthrough"/></g><g><path d="M0,28.1624755859375L23.8174,28.1624755859375L22.6909,33.2317655859375L6.59807,33.2317655859375L6.59807,36.6917755859375L22.5299,36.6917755859375L21.4034,41.278175585937504L6.59807,41.278175585937504L6.59807,44.8186755859375L23.8174,44.8186755859375L22.6909,50.1292755859375L0,50.1292755859375L0,28.1624755859375Z" fill="#FFFFFF" fill-opacity="1" style="mix-blend-mode:passthrough"/></g><g><path d="M135.90435791015625,28.1624755859375L159.64115791015624,28.1624755859375L158.51485791015625,33.2317655859375L142.42208791015625,33.2317655859375L142.42208791015625,36.6917755859375L158.35295791015625,36.6917755859375L157.22675791015624,41.278175585937504L142.42208791015625,41.278175585937504L142.42208791015625,44.8186755859375L159.64115791015624,44.8186755859375L158.51485791015625,50.1292755859375L135.90435791015625,50.1292755859375L135.90435791015625,28.1624755859375Z" fill="#FFFFFF" fill-opacity="1" style="mix-blend-mode:passthrough"/></g><g><path d="M103.95956420898438,28.1624755859375L113.37393420898438,28.1624755859375L124.88036420898437,44.0944755859375L124.88036420898437,28.1624755859375L130.9950642089844,28.1624755859375L130.9950642089844,50.1292755859375L121.58066420898437,50.1292755859375L110.15536420898438,34.1168255859375L110.07488420898437,34.1168255859375L110.07488420898437,50.1292755859375L103.95956420898438,50.1292755859375L103.95956420898438,28.1624755859375Z" fill="#FFFFFF" fill-opacity="1" style="mix-blend-mode:passthrough"/></g><g><path d="M27.679840087890625,28.1624755859375L37.17457008789063,28.1624755859375L48.60054008789062,44.0944755859375L48.680940087890626,44.0944755859375L48.680940087890626,28.1624755859375L54.79634008789063,28.1624755859375L54.79634008789063,50.1292755859375L45.301440087890626,50.1292755859375L33.79504008789063,34.1168255859375L33.79504008789063,50.1292755859375L27.679840087890625,50.1292755859375L27.679840087890625,28.1624755859375Z" fill="#FFFFFF" fill-opacity="1" style="mix-blend-mode:passthrough"/></g><g><path d="M59.463043212890625,35.8869505078125C59.463043212890625,29.4498205078125,63.00353321289062,27.9210205078125,68.95788321289062,27.9210205078125L78.93534321289063,27.9210205078125C86.17724321289063,27.9210205078125,87.46464321289062,30.4958505078125,87.46464321289062,34.5191105078125Q83.92424321289063,35.1628505078125,81.02744321289063,35.6456205078125C81.02744321289063,33.4730805078125,79.82054321289063,33.1511605078125,77.64804321289063,33.1511605078125L70.48664321289063,33.1511605078125C67.10716321289063,33.1511605078125,66.22209321289063,34.0363405078125,66.22209321289063,37.7376805078125L66.22209321289063,40.4734205078125C66.22209321289063,44.2553205078125,67.10716321289063,45.0598205078125,70.48664321289063,45.0598205078125L77.48704321289063,45.0598205078125C79.25734321289062,45.0598205078125,81.02744321289063,44.7380205078125,81.02744321289063,42.5655205078125L81.02744321289063,42.0022205078125L73.38344321289063,42.0022205078125L72.25694321289063,37.415750507812504L87.70604321289062,37.415750507812504L87.70604321289062,43.6920205078125C87.70604321289062,49.968220507812504,84.40694321289062,50.2901205078125,76.92384321289063,50.2901205078125L68.95788321289062,50.2901205078125C63.00353321289062,50.2901205078125,59.463043212890625,48.761220507812496,59.463043212890625,42.3241205078125L59.463043212890625,35.8869505078125Z" fill="#FFFFFF" fill-opacity="1" style="mix-blend-mode:passthrough"/></g><g><path d="M92.05084228515625,28.1624755859375L98.89026228515625,28.1624755859375L98.89026228515625,50.1292755859375L92.05084228515625,50.1292755859375L92.05084228515625,28.1624755859375Z" fill="#FFFFFF" fill-opacity="1" style="mix-blend-mode:passthrough"/></g><g><path d="M197.05633544921875,51.17530537109375L197.05633544921875,0.08050537109375L248.71483544921875,0.08050537109375L197.05633544921875,51.17530537109375Z" fill="#E63323" fill-opacity="1" style="mix-blend-mode:passthrough"/></g></g></svg>